<svg width="10.000000" height="10.000000" viewBox="0 0 10 10" fill="none" xmlns="http://www.w3.org/2000/svg" xmlns:xlink="http://www.w3.org/1999/xlink">
	<desc>
			Created with Pixso.
	</desc>
	<defs/>
	<path id="Vector" d="M3.79538 9.39917L3.79535 9.39911C3.78778 9.3927 3.78046 9.38641 3.77335 9.38037C3.78046 9.38647 3.78781 9.3927 3.79538 9.39917Z" fill="#12C6FF" fill-opacity="1.000000" fill-rule="evenodd"/>
	<path id="Vector" d="M3.7962 0.600159L3.79608 0.60022C3.67441 0.703918 3.61353 0.755798 3.54852 0.799377C3.39948 0.899292 3.23209 0.968628 3.05606 1.00336C2.97928 1.01849 2.89957 1.0249 2.74017 1.0376L2.74005 1.0376L2.7399 1.0376C2.33929 1.06958 2.13898 1.08557 1.97186 1.14459C1.58527 1.28119 1.28116 1.58527 1.14462 1.97186C1.08557 2.13898 1.06958 2.33929 1.03763 2.73987L1.0376 2.74005L1.0376 2.74017C1.02487 2.89954 1.01852 2.97931 1.00336 3.05603C0.968597 3.23206 0.899261 3.39948 0.799377 3.54852C0.755798 3.61353 0.703918 3.67444 0.600189 3.79614L0.600128 3.7962L0.599792 3.79663C0.339294 4.10229 0.209015 4.25519 0.132599 4.41504C-0.0441895 4.78497 -0.0441895 5.21503 0.132599 5.58496C0.209015 5.74487 0.339325 5.89777 0.599854 6.20349L0.600128 6.2038L0.600189 6.20386C0.703918 6.32556 0.755798 6.38647 0.799377 6.45148C0.899261 6.60052 0.968597 6.76788 1.00336 6.94397C1.01852 7.02069 1.02487 7.1004 1.0376 7.2597L1.0376 7.25995L1.03763 7.26007C1.06958 7.66071 1.08557 7.86102 1.14462 8.02814C1.28116 8.41473 1.58527 8.71887 1.97186 8.85541C2.13901 8.91443 2.33936 8.93042 2.74002 8.9624L2.74005 8.9624C2.89951 8.9751 2.97925 8.98151 3.05606 8.99664C3.23209 9.03137 3.39948 9.10077 3.54852 9.20062C3.60934 9.24139 3.66656 9.28943 3.77335 9.38037L3.79535 9.39911L3.79538 9.39917L3.7962 9.39984C4.10214 9.66058 4.2551 9.79095 4.41504 9.86743C4.785 10.0442 5.215 10.0442 5.58496 9.86743C5.7449 9.79095 5.89786 9.66058 6.2038 9.39984L6.20392 9.39978C6.32559 9.29608 6.38647 9.2442 6.45145 9.20062C6.60049 9.10077 6.76791 9.03137 6.94394 8.99664C7.02075 8.98151 7.10049 8.9751 7.25995 8.9624C7.66064 8.93042 7.86099 8.91443 8.02814 8.85541C8.41476 8.71887 8.71884 8.41473 8.85541 8.02814C8.9144 7.86102 8.93039 7.66064 8.9624 7.25995C8.9751 7.10052 8.98151 7.02075 8.99664 6.94397C9.0314 6.76788 9.10074 6.60052 9.20065 6.45148C9.2442 6.38647 9.29608 6.32556 9.39975 6.20392L9.39984 6.2038C9.66061 5.89783 9.79095 5.74487 9.8674 5.58496C10.0442 5.21503 10.0442 4.78497 9.8674 4.41504C9.79095 4.25513 9.66061 4.10217 9.39984 3.7962L9.39917 3.79541C9.29587 3.67419 9.24411 3.6134 9.20065 3.54852C9.10074 3.39948 9.0314 3.23206 8.99664 3.05603C8.98151 2.97925 8.9751 2.89954 8.9624 2.74005L8.9624 2.73999C8.93039 2.33936 8.9144 2.13898 8.85541 1.97186C8.71884 1.58527 8.41476 1.28119 8.02814 1.14459C7.86102 1.08557 7.66071 1.06958 7.26007 1.0376L7.25995 1.0376L7.2597 1.0376C7.10043 1.0249 7.02072 1.01849 6.94394 1.00336C6.76791 0.968628 6.60049 0.899292 6.45145 0.799377C6.38644 0.755798 6.32556 0.703918 6.2038 0.600159L6.20349 0.599854C5.89774 0.339294 5.74484 0.209045 5.58496 0.132629C5.215 -0.0441895 4.785 -0.0441895 4.41504 0.132629C4.26517 0.204224 4.12143 0.323242 3.85214 0.55249C3.83435 0.567627 3.81598 0.583252 3.79703 0.599426L3.7966 0.599792L3.7962 0.600159ZM7.18674 3.35608C7.34564 3.51501 7.34564 3.77264 7.18674 3.93158L4.47391 6.64447C4.31494 6.80334 4.05731 6.80334 3.89838 6.64447L2.81323 5.55933C2.65433 5.40033 2.65433 5.1427 2.81323 4.98383C2.97217 4.82489 3.22983 4.82489 3.38873 4.98383L4.18616 5.78119L6.61124 3.35608C6.77014 3.19714 7.02786 3.19714 7.18674 3.35608Z" fill="#12C6FF" fill-opacity="1.000000" fill-rule="evenodd"/>
	<path id="Vector" d="M7.18674 3.93158C7.34564 3.77264 7.34564 3.51501 7.18674 3.35608C7.02786 3.19714 6.77014 3.19714 6.61124 3.35608L4.18616 5.78119L3.38873 4.98383C3.22983 4.82489 2.97217 4.82489 2.81323 4.98383C2.65433 5.1427 2.65433 5.40033 2.81323 5.55933L3.89838 6.64447C4.05731 6.80334 4.31494 6.80334 4.47391 6.64447L7.18674 3.93158Z" fill="#FFFFFF" fill-opacity="1.000000" fill-rule="nonzero"/>
</svg>
