<svg width="25.494781" height="28.333313" viewBox="0 0 25.4948 28.3333" fill="none" xmlns="http://www.w3.org/2000/svg" xmlns:xlink="http://www.w3.org/1999/xlink">
	<desc>
			Created with Pixso.
	</desc>
	<defs/>
	<path id="Vector" d="M20.9853 3.49915C20.872 3.49915 20.7586 3.47083 20.6595 3.41418C17.9395 2.01166 15.5878 1.41669 12.7686 1.41669C9.96365 1.41669 7.30032 2.08252 4.87781 3.41418C4.53781 3.59833 4.11282 3.47083 3.91449 3.13086C3.73032 2.79083 3.85782 2.35168 4.19781 2.16748C6.83279 0.736694 9.72281 0 12.7686 0C15.7861 0 18.4211 0.665833 21.3112 2.15332C21.6653 2.33752 21.7928 2.76251 21.6086 3.10248C21.4811 3.35748 21.2403 3.49915 20.9853 3.49915ZM0.712799 10.9366C0.571136 10.9366 0.429474 10.8942 0.301971 10.8091C-0.0238647 10.5825 -0.094696 10.1433 0.131989 9.8175C1.53448 7.83417 3.31949 6.27582 5.44449 5.185C9.89282 2.89001 15.5878 2.87585 20.0503 5.17084C22.1753 6.26166 23.9603 7.80585 25.3628 9.77502C25.5895 10.0867 25.5186 10.54 25.1928 10.7667C24.867 10.9933 24.4278 10.9225 24.2011 10.5967C22.9261 8.81165 21.3112 7.40918 19.3987 6.43164C15.3328 4.34918 10.1336 4.34918 6.08197 6.44586C4.1553 7.4375 2.54031 8.85419 1.26532 10.6392C1.15198 10.8375 0.939484 10.9366 0.712799 10.9366ZM9.56699 28.0358C9.38281 28.0358 9.19864 27.965 9.07114 27.8233C7.83865 26.5908 7.17282 25.7975 6.22363 24.0833C5.24615 22.3408 4.73615 20.2158 4.73615 17.935C4.73615 13.7275 8.33447 10.2992 12.7545 10.2992C17.1745 10.2992 20.7728 13.7275 20.7728 17.935C20.7728 18.3317 20.4612 18.6433 20.0645 18.6433C19.6678 18.6433 19.3561 18.3317 19.3561 17.935C19.3561 14.5067 16.3953 11.7158 12.7545 11.7158C9.11365 11.7158 6.1528 14.5067 6.1528 17.935C6.1528 19.975 6.60614 21.8592 7.47031 23.3892C8.37698 25.0183 9.00031 25.7125 10.0912 26.8175C10.3603 27.1008 10.3603 27.54 10.0912 27.8233C9.9353 27.965 9.75113 28.0358 9.56699 28.0358ZM19.7245 25.415C18.0386 25.415 16.5511 24.99 15.3328 24.1542C13.222 22.7233 11.9612 20.4 11.9612 17.935C11.9612 17.5383 12.2728 17.2267 12.6695 17.2267C13.0661 17.2267 13.3778 17.5383 13.3778 17.935C13.3778 19.9325 14.3978 21.8167 16.1261 22.9783C17.132 23.6583 18.3078 23.9842 19.7245 23.9842C20.0645 23.9842 20.6311 23.9417 21.1978 23.8425C21.5803 23.7717 21.9486 24.0267 22.0195 24.4233C22.0903 24.8058 21.8353 25.1742 21.4386 25.245C20.6311 25.4008 19.9228 25.415 19.7245 25.415ZM16.877 28.3333C16.8203 28.3333 16.7495 28.3192 16.6928 28.305C14.4403 27.6816 12.967 26.8458 11.4228 25.33C9.43948 23.3608 8.34863 20.74 8.34863 17.935C8.34863 15.64 10.3036 13.77 12.712 13.77C15.1203 13.77 17.0753 15.64 17.0753 17.935C17.0753 19.4508 18.3928 20.6833 20.022 20.6833C21.6511 20.6833 22.9686 19.4508 22.9686 17.935C22.9686 12.5942 18.3645 8.25916 12.6978 8.25916C8.67447 8.25916 4.99115 10.4975 3.33365 13.9683C2.78113 15.1158 2.4978 16.4617 2.4978 17.935C2.4978 19.04 2.59698 20.7825 3.44696 23.0492C3.58865 23.4175 3.40448 23.8283 3.03613 23.9558C2.66782 24.0975 2.25699 23.8992 2.12949 23.545C1.4353 21.6891 1.09531 19.8475 1.09531 17.935C1.09531 16.235 1.42114 14.6909 2.05865 13.345C3.94281 9.39252 8.12198 6.82831 12.6978 6.82831C19.1436 6.82831 24.3853 11.8008 24.3853 17.9208C24.3853 20.2158 22.4303 22.0858 20.022 22.0858C17.6136 22.0858 15.6586 20.2158 15.6586 17.9208C15.6586 16.405 14.3412 15.1725 12.712 15.1725C11.0828 15.1725 9.76532 16.405 9.76532 17.9208C9.76532 20.3433 10.7003 22.61 12.4145 24.31C13.7603 25.6417 15.0495 26.3784 17.047 26.9308C17.4295 27.03 17.642 27.4266 17.5428 27.795C17.472 28.1208 17.1745 28.3333 16.877 28.3333Z" fill="#FFFFFF" fill-opacity="0.430000" fill-rule="nonzero"/>
</svg>
