<svg width="29.000000" height="29.000000" viewBox="0 0 29 29" fill="none" xmlns="http://www.w3.org/2000/svg" xmlns:xlink="http://www.w3.org/1999/xlink">
	<desc>
			Created with Pixso.
	</desc>
	<defs>
		<clipPath id="clip7_88">
			<rect id="df383263-9bc9-4b81-b416-a7c5c694f818 1" width="29.000000" height="29.000000" fill="white" fill-opacity="0"/>
		</clipPath>
	</defs>
	<rect id="df383263-9bc9-4b81-b416-a7c5c694f818 1" width="29.000000" height="29.000000" fill="#FFFFFF" fill-opacity="0"/>
	<g clip-path="url(#clip7_88)">
		<path id="Vector" d="M26.7345 12.7864L25.6843 12.8196C25.5951 12.8196 24.9501 12.8013 24.3241 12.3494C24.371 12.3536 24.4175 12.3605 24.4654 12.3605C25.1093 12.3605 25.7335 11.9746 25.983 11.4219L26.4348 10.4241C25.8678 10.4316 25.35 10.3604 25.35 10.3604C25.3458 10.36 24.9373 10.3074 24.4651 9.82727C24.1266 9.48315 23.7072 9.30078 23.2535 9.30078C23.0547 9.30078 22.8773 9.33655 22.7241 9.38489C22.7482 9.30408 22.7703 9.22192 22.7835 9.13745C22.9282 8.20337 22.3248 7.49158 22.3245 7.49219L21.5339 6.51807L21.0442 7.66248C21.0426 7.66577 20.9185 7.9342 20.6974 8.0647C20.6311 7.72852 20.4667 7.35022 20.116 6.98938C19.4548 6.30847 18.6504 6.20654 18.2294 6.20654C18.0346 6.20654 17.8953 6.22754 17.8613 6.23315L16.9075 6.41956C16.9626 6.20789 17.0802 5.83813 17.2942 5.50549L17.8206 4.68982L16.496 4.83972L16.0743 3.94812L15.2574 4.36707L14.5021 3.625L13.7489 4.36707L12.9303 3.94812L12.5092 4.83972L11.185 4.68945L11.7124 5.50586C11.9267 5.83813 12.0436 6.20691 12.0981 6.41858L11.188 6.24011L11.1566 6.23486C11.1114 6.22754 10.973 6.20654 10.7769 6.20654C10.3562 6.20654 9.55139 6.30847 8.89194 6.98901C8.54089 7.34985 8.37613 7.72852 8.30908 8.0647C8.08948 7.93518 7.96631 7.67126 7.96631 7.67126L7.47562 6.52039L6.67316 7.50049C6.57474 7.62659 6.09161 8.29614 6.22272 9.13843C6.23627 9.22253 6.25839 9.30408 6.28217 9.38489C6.12991 9.33594 5.95227 9.30078 5.75378 9.30078C5.29974 9.30078 4.88068 9.48315 4.5412 9.82727C4.07031 10.3054 3.74988 10.3391 3.66809 10.3594C3.5863 10.3796 3.23846 10.4363 2.57373 10.4241L3.0235 11.4219C3.27316 11.9746 3.89761 12.3605 4.54056 12.3605C4.58908 12.3605 4.63531 12.3536 4.68286 12.3494C4.05811 12.8013 3.41315 12.8196 3.33524 12.8199L2.26562 12.7864L2.58957 13.798C2.75272 14.3192 3.29791 15.1826 4.34109 15.2756C4.22748 15.7489 3.97586 16.2797 3.42307 16.5084L2.62622 16.835L3.06079 17.5884C3.30585 17.9945 3.88242 18.4697 4.70236 18.4697C4.87936 18.4691 5.05042 18.4514 5.21555 18.4165C5.25778 18.6022 5.3103 18.7883 5.37271 18.9729C5.61676 19.6963 5.4064 20.2004 5.40408 20.2061L5.01047 21.0262L5.88885 21.2567C5.89975 21.26 6.16525 21.3325 6.49747 21.3325C6.64807 21.3325 6.79269 21.3171 6.92709 21.285C7.02914 21.2614 7.12753 21.2297 7.22165 21.1915C7.33557 21.3944 7.47363 21.5797 7.63443 21.7456C8.19748 22.3206 8.9953 22.6118 10.0055 22.6118L10.0088 22.6118L10.73 22.6024L9.23999 23.2194L10.3713 23.7635C10.7828 23.9629 11.2696 24.1984 11.7662 24.3789L11.6245 24.7638L12.0149 24.9404C12.0496 24.9563 12.7995 25.2899 14.0458 25.3611C14.0458 25.3611 14.347 25.375 14.5127 25.375C14.6782 25.375 14.9754 25.3602 14.9754 25.3602C16.2141 25.2872 16.9581 24.9563 16.9927 24.9404L17.3837 24.7631L17.241 24.3779C17.7512 24.1921 18.2568 23.947 18.651 23.7554L19.7609 23.2188L18.276 22.6024L19.0002 22.6118C20.0119 22.6118 20.8098 22.3202 21.3719 21.7446C21.532 21.5801 21.6698 21.3954 21.7843 21.1915C21.8787 21.2297 21.9778 21.2614 22.0801 21.2856C22.2146 21.3171 22.3585 21.3325 22.5092 21.3325C22.8357 21.3325 23.1038 21.261 23.1111 21.2587L23.9932 21.0262L23.6087 20.2211C23.5999 20.2004 23.3895 19.6963 23.6339 18.9723C23.6956 18.7875 23.7478 18.6016 23.7905 18.4165C23.9563 18.4514 24.1293 18.4691 24.3078 18.4697C25.3524 18.4697 25.853 17.7388 25.9497 17.5798L26.3803 16.8344L25.5835 16.509C25.0294 16.2797 24.7784 15.7491 24.6661 15.2762C25.6958 15.1869 26.2482 14.3229 26.4171 13.7983L26.7345 12.7864Z" fill="#FEFEFE" fill-opacity="1.000000" fill-rule="evenodd"/>
		<path id="Vector" d="M16.2426 6.08936C15.7621 5.82312 15.1389 5.67163 14.5023 5.67163C13.8689 5.67163 13.2458 5.82312 12.7639 6.08936C12.72 5.94299 12.6589 5.76526 12.5757 5.57922L12.7567 5.60059L12.9469 5.62061L13.0288 5.44775L13.2686 4.93799L13.713 5.16711L13.8854 5.25415L14.0225 5.11951L14.5023 4.64587L14.9831 5.11951L15.1208 5.25415L15.2932 5.16711L15.7354 4.93799L15.9784 5.44775L16.0586 5.62061L16.2492 5.60059L16.4308 5.57922C16.3475 5.76526 16.2858 5.94299 16.2426 6.08936ZM14.5023 6.72266C13.6582 6.72363 13.0255 6.99878 12.8878 7.32251L14.5023 7.95703L16.1171 7.32251C15.9807 6.99878 15.3477 6.72363 14.5023 6.72266ZM14.5194 23.5083L14.5177 23.5083L14.5038 23.5083L14.488 23.5083L14.4867 23.5083C13.9758 23.5115 13.2708 23.4069 12.932 23.3086L12.5238 24.4077C12.7926 24.5029 13.7047 24.6862 14.5038 24.6862C15.3013 24.6862 16.2138 24.5029 16.4822 24.4077L16.0747 23.3086C15.7346 23.4069 15.0306 23.5115 14.5194 23.5083ZM16.2317 22.9619C16.6261 22.8425 17.3045 22.5856 17.6084 22.4144L17.4055 23.0748L18.093 23.3024C17.6773 23.51 17.1735 23.7039 16.5629 23.8698L16.2317 22.9619ZM11.3977 22.4144L11.6011 23.0748L10.913 23.3024C11.3283 23.51 11.8342 23.7039 12.4424 23.8698L12.7742 22.9619C12.3806 22.8425 11.7014 22.5856 11.3977 22.4144ZM24.2155 11.5677C24.2985 11.5963 24.3823 11.6088 24.4656 11.6088C24.8258 11.6088 25.1732 11.3771 25.2932 11.1122C25.2932 11.1122 24.6333 11.0724 23.9233 10.3556C23.6977 10.1233 23.4583 10.054 23.2534 10.054C22.9347 10.054 22.6956 10.2208 22.6956 10.2208C23.1583 10.4661 23.4222 10.7913 23.6439 11.0645C23.8327 11.2972 23.9909 11.4922 24.2155 11.5677ZM4.78815 11.5677C4.70758 11.5963 4.62335 11.6088 4.54013 11.6088C4.18018 11.6088 3.83179 11.3771 3.71326 11.1125C3.71326 11.1125 4.37271 11.0724 5.08173 10.3556C5.30856 10.1229 5.54733 10.054 5.75372 10.054C6.0704 10.054 6.31015 10.2212 6.31015 10.2212C5.84869 10.4659 5.58456 10.7904 5.36249 11.0634C5.17264 11.2966 5.01352 11.4921 4.78815 11.5677ZM23.9573 16.7994C23.2938 16.4741 22.8754 15.6104 22.7741 15.2996C22.6639 17.0117 21.824 18.2004 20.8419 19.3448C20.3321 19.938 20.1544 20.5148 20.1544 20.5148C20.1544 20.5148 20.2528 19.8612 20.6933 19.3293C21.6097 18.234 22.4805 16.8701 22.5453 15.293C22.5894 14.1923 22.3055 13.3 21.8617 12.5641C22.11 13.3302 22.0747 14.2682 21.2319 15.144C21.2319 15.144 22.9102 13.1429 20.5643 11.0912C19.8977 10.5367 19.1863 10.1329 18.6404 9.82312C18.4174 9.69666 18.222 9.58569 18.0687 9.48669C19.9794 10.1072 20.9126 9.42419 20.9126 9.42419C20.3026 9.95044 19.5124 9.94153 19.0228 9.8656C19.1558 9.93005 19.2939 9.99744 19.4424 10.0769C21.0536 10.9479 22.5016 12.3811 22.7486 14.3658L22.7486 14.3507C23.1235 16.2997 23.9573 16.7994 23.9573 16.7994ZM24.4477 14.5288C24.4628 14.5298 24.4754 14.5298 24.4905 14.5298C25.3887 14.5298 25.6929 13.5724 25.6929 13.5724L25.6755 13.5724C25.5107 13.5724 24.1753 13.5337 23.2314 12.34C23.205 12.3066 23.1788 12.2734 23.1528 12.2404C22.5661 11.4966 22.0581 10.8525 21.0953 10.5925L20.9962 10.5754L20.9749 10.475C20.9469 10.3224 21.0526 10.1788 21.2914 10.0243C22.6793 9.11987 21.7365 7.96606 21.7365 7.96606C21.7365 7.96606 21.3402 8.88892 20.4536 8.88892C20.443 8.88892 20.4322 8.88855 20.4212 8.88818C20.4102 8.88794 20.399 8.88757 20.3878 8.88757L20.3682 8.8866C20.2744 8.88171 20.1834 8.87708 20.092 8.85803L19.9288 8.82605C19.9288 8.82605 20.1815 8.14148 19.5712 7.51343C19.1115 7.03918 18.5525 6.95874 18.2294 6.95874C18.067 6.95874 17.9636 6.97937 17.9636 6.97937C18.2702 7.37805 18.4917 8.03992 18.1381 8.44849C18.0195 8.58423 17.8351 8.66992 17.6533 8.75439C17.3654 8.88818 17.0846 9.01855 17.0846 9.33911C17.0846 9.56091 17.2931 9.81934 17.6662 10.0513C18.7893 10.7549 19.904 11.6893 20.368 12.9408C20.9469 14.5018 20.2944 15.5381 19.3632 16.1326C19.3632 16.1326 19.6554 16.4001 20.0788 16.4343C20.165 16.4425 20.2491 16.4468 20.3278 16.4468C21.2221 16.4468 21.6846 16.0291 21.6846 16.0291C21.6846 16.0291 21.6084 16.606 21.1431 17.1414C20.7134 17.6356 20.1501 17.927 19.2902 17.9388C19.2902 17.9388 19.2631 18.3363 19.6435 18.6799C19.8876 18.897 20.45 18.9672 20.45 18.9672C20.45 18.9672 19.3965 19.1798 19.2804 20.7281C19.2172 21.5671 19.0016 21.859 19.0016 21.859L19.0203 21.859C21.465 21.859 21.4027 19.7725 21.4027 19.7725C21.4027 19.7725 21.5723 20.3899 22.2546 20.5514C22.3368 20.5723 22.4248 20.5808 22.5085 20.5808C22.7278 20.5808 22.9187 20.5297 22.9187 20.5297C22.9187 20.5297 22.5614 19.78 22.9162 18.7313C23.2097 17.861 23.1625 17.2166 23.1625 17.2166C23.1625 17.2166 23.4916 17.7118 24.308 17.7164L24.3165 17.7164C24.9964 17.7164 25.2927 17.2034 25.2927 17.2034C23.6628 16.5299 23.8239 14.3569 23.8239 14.3569C23.8239 14.3569 24.0356 14.514 24.4477 14.5288ZM6.23099 15.2992C6.34195 17.0117 7.1817 18.2004 8.16345 19.3445C8.673 19.938 8.85297 20.5145 8.85297 20.5145C8.85297 20.5145 8.75323 19.8608 8.31076 19.3298C7.39636 18.234 6.52554 16.8699 6.46149 15.293C6.41559 14.192 6.69989 13.2997 7.14438 12.5642C6.89639 13.3306 6.93039 14.2682 7.77411 15.1444C7.77411 15.1444 6.09558 13.1429 8.44284 11.0912C9.10883 10.537 9.81924 10.1335 10.3646 9.82373C10.5877 9.69702 10.7832 9.58594 10.9367 9.48669C9.02667 10.1072 8.09348 9.42395 8.09348 9.42395C8.70306 9.95044 9.49295 9.94153 9.98334 9.8656L9.97208 9.87109C9.84271 9.93384 9.70706 9.99963 9.56363 10.0773C7.95178 10.9479 6.50473 12.3815 6.25674 14.3658L6.25674 14.3503C5.8826 16.2993 5.0491 16.7994 5.0491 16.7994C5.71185 16.4741 6.12961 15.6101 6.23099 15.2992ZM9.36319 18.6797C9.11917 18.897 8.55612 18.9672 8.55612 18.9672C8.55612 18.9672 9.61053 19.1796 9.72644 20.7281C9.78952 21.5671 10.0032 21.8586 10.0032 21.8586L9.98599 21.8586C7.54068 21.8586 7.60342 19.7721 7.60342 19.7721C7.60342 19.7721 7.43271 20.3899 6.75143 20.5514C6.66986 20.5723 6.5827 20.5808 6.4975 20.5808C6.27823 20.5808 6.08835 20.5297 6.08835 20.5297C6.08835 20.5297 6.44366 19.7803 6.08932 18.7313C5.79642 17.861 5.84399 17.2162 5.84399 17.2162C5.84399 17.2162 5.51508 17.7118 4.69809 17.7168L4.68985 17.7168C4.01022 17.7168 3.71338 17.2034 3.71338 17.2034C5.34235 16.53 5.18286 14.3569 5.18286 14.3569C5.18286 14.3569 4.97119 14.514 4.55807 14.5288C4.54291 14.5298 4.52936 14.5298 4.51514 14.5298C3.61661 14.5298 3.31213 13.5725 3.31213 13.5725L3.33029 13.5725C3.49606 13.5725 4.8302 13.5337 5.77365 12.3401C5.80023 12.3064 5.82663 12.2731 5.85284 12.2397C6.43964 11.4966 6.94797 10.8528 7.90887 10.5927L8.00992 10.5752L8.0314 10.475C8.05948 10.3225 7.9541 10.1785 7.7157 10.0244C6.32776 9.11987 7.2702 7.96643 7.2702 7.96643C7.2702 7.96643 7.66418 8.88892 8.55347 8.88892C8.56406 8.88892 8.57437 8.88867 8.58484 8.88843C8.59567 8.88818 8.60666 8.88794 8.61819 8.88794L8.64401 8.88647C8.7352 8.88147 8.82504 8.87659 8.91409 8.85803L9.07788 8.82617C9.07788 8.82617 8.82394 8.1416 9.43552 7.51355C9.89487 7.03931 10.4543 6.95837 10.7766 6.95837C10.94 6.95837 11.0421 6.97949 11.0421 6.97949C10.7363 7.37805 10.5147 8.04004 10.8683 8.44812C10.9868 8.58411 11.1712 8.66992 11.3527 8.75439C11.6402 8.88818 11.9205 9.01868 11.9205 9.33911C11.9205 9.56067 11.7124 9.81934 11.3393 10.0513C10.2162 10.755 9.10165 11.6896 8.63803 12.9408C8.05948 14.5022 8.71198 15.5385 9.64423 16.1326C9.64423 16.1326 9.35165 16.4001 8.92728 16.4343C8.84113 16.4425 8.75787 16.4465 8.67764 16.4465C7.78439 16.4465 7.32175 16.0292 7.32175 16.0292C7.32175 16.0292 7.39868 16.606 7.86099 17.1416C8.29324 17.6356 8.85629 17.927 9.71622 17.939C9.71622 17.939 9.74329 18.3363 9.36319 18.6797ZM13.9506 11.2778L14.5274 11.2778L15.1027 11.2778L15.1027 11.6711C14.9676 11.5061 14.7034 11.54 14.7034 11.54L14.7034 12.1068C14.7034 12.1068 14.7137 12.3862 14.8117 12.5068L14.5274 12.5068L14.2415 12.5068C14.3412 12.3862 14.3502 12.1068 14.3502 12.1068L14.3502 11.54C14.3502 11.54 14.087 11.5061 13.9506 11.6711L13.9506 11.2778ZM12.695 11.337C12.7349 11.3798 12.7742 11.4261 12.8125 11.4731L12.8178 11.4795C12.8248 11.4878 12.8315 11.496 12.839 11.5063C12.874 11.5526 12.9093 11.6019 12.9436 11.6526C12.948 11.6582 12.9523 11.6646 12.9567 11.6711L12.961 11.6775L12.9634 11.6809L12.9649 11.6831L12.9667 11.6858C13.0077 11.7472 13.0463 11.8109 13.0846 11.8767C13.4373 12.4824 14.0013 12.8448 14.5023 12.8456C15.0036 12.8448 15.5673 12.4824 15.921 11.8767C15.9599 11.8093 15.9995 11.7439 16.0405 11.6827C16.0468 11.6742 16.053 11.6654 16.0587 11.6561C16.0933 11.6039 16.13 11.5533 16.168 11.504C16.1732 11.4973 16.1782 11.491 16.183 11.4849L16.1911 11.4747C16.2304 11.4261 16.271 11.3794 16.3122 11.3354C16.3151 11.3326 16.3179 11.3298 16.3204 11.3273C16.3243 11.3232 16.328 11.3196 16.332 11.316C16.5117 11.1333 16.7256 10.9937 17.0061 10.9164L16.8813 10.8441L16.8747 10.8441L16.3783 10.5575L15.8684 10.2666L14.5063 11.0048L14.5023 11.0015L14.4997 11.0048L13.1371 10.2666L12.6276 10.5575L12.1303 10.8441L12.1247 10.8441L11.9989 10.9164C12.2795 10.9937 12.4929 11.1316 12.6732 11.3147C12.6763 11.3176 12.679 11.3208 12.6818 11.3239C12.6859 11.3284 12.6899 11.333 12.695 11.337ZM14.0681 9.14661L14.0681 8.77661L13.3982 8.49597C13.3982 8.49597 13.4041 8.71094 13.7056 8.94421C13.8688 9.07239 13.97 9.10522 13.9922 9.11243C13.9949 9.1134 13.9964 9.11389 13.9968 9.11414L14.0681 9.14661ZM14.3846 8.21008L14.3846 10.5146L13.2994 9.94568L12.9108 7.71326L14.3846 8.21008ZM14.9375 8.77661L15.6074 8.49597C15.6074 8.49597 15.6018 8.71094 15.2993 8.94421C15.1359 9.073 15.0346 9.10559 15.0128 9.11255C15.0103 9.1134 15.0088 9.11389 15.0085 9.11414L14.9375 9.14661L14.9375 8.77661ZM15.7061 9.94568L16.0934 7.71326L14.6206 8.21008L14.6206 10.5146L15.7061 9.94568ZM12.7071 15.9178C12.6183 15.9178 12.4439 15.9073 12.3006 15.8555C12.1424 15.7972 11.9067 15.5084 11.9608 15.1903C12.0292 15.1486 12.1877 15.0599 12.3359 15.0599C12.4502 15.0599 12.5281 15.1132 12.5829 15.2278C12.6305 15.3274 12.7163 15.3934 12.7764 15.4313C12.7744 15.5242 12.7655 15.6685 12.7404 15.7963C12.7348 15.8248 12.7275 15.8512 12.7199 15.8772C12.717 15.8884 12.7136 15.8984 12.7107 15.907L12.709 15.9119C12.7083 15.9141 12.7077 15.916 12.7071 15.9178ZM14.7674 15.4299L14.7365 15.4601C14.7305 15.4658 14.7266 15.4697 14.7249 15.4714L14.6922 15.5037L12.9995 15.4771C12.9985 15.6439 12.971 15.786 12.9446 15.8898C12.9403 15.9072 12.9357 15.9253 12.9311 15.9434L14.9448 16.3035C15.1542 16.1581 15.7307 15.739 15.9547 15.5746C15.7918 15.3384 15.7763 15.0574 15.8133 14.8595C15.706 14.7917 15.6248 14.7148 15.56 14.6334C15.3272 14.8857 14.9042 15.297 14.7677 15.4297L14.7674 15.4299ZM14.6913 13.168C15.0255 13.1348 15.3993 12.9921 15.7897 12.6072L18.3353 12.6072C18.2245 12.899 18.1326 13.215 18.1326 13.5291L18.1336 15.5571C17.7076 15.4858 17.657 15.0297 17.6554 15.01L17.6478 14.9166L17.5563 14.9088C17.3707 14.8914 17.2486 14.8135 17.1448 14.7133C16.9362 14.5051 16.9359 14.1687 16.9362 14.166C16.9362 14.1663 16.936 14.1667 16.9359 14.1672C16.9355 14.168 16.9351 14.1688 16.9346 14.1699C16.9333 14.1726 16.9312 14.1764 16.9285 14.1813C16.8906 14.2506 16.7343 14.5363 16.9699 14.845C17.0802 14.9902 17.241 15.0797 17.4487 15.1151C17.4975 15.3679 17.6865 15.7255 18.1336 15.7797L18.1336 16.7728L16.8771 16.7728C16.2979 16.4514 16.5436 15.8868 16.5545 15.8628L16.6037 15.756L16.4927 15.714C15.8653 15.4825 16.038 14.8599 16.0462 14.8325L16.0717 14.7422L15.9865 14.702C15.4683 14.4628 15.5384 13.8193 15.5453 13.7924C15.3861 13.9209 15.3286 14.1831 15.4383 14.4401C15.3822 14.5043 15.3078 14.5809 15.2256 14.6654L15.2254 14.6656L15.2121 14.6793C14.6755 14.543 14.6586 14.0522 14.6586 14.0303L14.6573 13.9547L14.587 13.9274C14.3776 13.8502 14.2336 13.7345 14.163 13.5791C14.0834 13.4071 14.1115 13.2264 14.1332 13.1396C14.1947 13.1534 14.2554 13.1626 14.3142 13.168C14.3746 13.1742 14.436 13.1777 14.4988 13.1777L14.5024 13.1777L14.507 13.1777C14.5695 13.1777 14.6302 13.1742 14.6913 13.168ZM12.4077 13.5366L12.3734 14.8278L12.5213 14.8501L12.8819 13.6112L12.699 13.2301L12.4077 13.5366ZM13.1187 18.2389C13.116 18.281 13.1467 18.3164 13.1886 18.3174C13.2292 18.3212 13.2642 18.2899 13.2681 18.2488C13.2698 18.2094 13.2398 18.1726 13.1975 18.1709C13.1562 18.1672 13.1223 18.1991 13.1187 18.2389ZM16.4197 19.4652C16.4079 19.4619 16.3954 19.4608 16.3844 19.4608C16.3117 19.4608 16.28 19.5247 16.28 19.5247C16.3286 19.6544 16.3409 19.7478 16.3519 19.8322C16.3643 19.9263 16.3752 20.0098 16.4335 20.1212C16.503 20.2542 16.6183 20.3665 16.6891 20.4351C16.7019 20.4478 16.7136 20.4589 16.7229 20.4685C16.7229 20.4685 16.7063 20.5872 16.6892 20.6763L16.532 21.489C16.4319 21.5027 16.3269 21.51 16.218 21.515L16.3828 20.7332C16.4068 20.6201 16.2702 20.5449 16.0881 20.4447C15.8966 20.3394 15.6547 20.2063 15.4961 19.9722C15.3448 20.1415 15.0605 20.1921 14.7745 20.1921C14.5137 20.1921 14.2531 20.1504 14.0943 20.1191C14.0543 20.1133 14.016 20.1083 13.9781 20.1083C13.8866 20.1083 13.803 20.1365 13.7452 20.2329L13.7 20.3093L12.8463 20.109L12.6337 20.4597C12.604 20.5161 12.602 20.5637 12.6502 20.6168L12.7077 20.6794C12.668 20.803 12.4904 20.9904 12.4904 20.9904L12.3636 20.8326C12.2632 20.7208 12.2797 20.5161 12.3837 20.3269L12.7225 19.7584L13.4457 19.8618L13.3338 19.6071C13.2282 19.3717 13.3086 19.0917 13.3751 18.8602L13.3752 18.86C13.4039 18.7598 13.4301 18.6688 13.4375 18.5942C13.4292 18.6688 13.3602 18.6859 13.2799 18.6859C13.241 18.6859 13.1994 18.6819 13.1609 18.6781C13.1276 18.6748 13.0967 18.6719 13.0716 18.6719C13.0501 18.6719 13.0319 18.6741 13.0224 18.681L12.8262 18.7996L12.672 18.6639C12.6532 18.6381 12.6472 18.5762 12.6925 18.5304L13.0501 18.1311L12.6277 17.6398L13.2195 17.9355L13.4005 17.7178C13.45 17.7657 13.4282 17.8926 13.4282 17.8926C13.6125 17.8972 14.131 18.1818 14.1584 18.8477C14.1593 18.8679 14.1593 18.8906 14.1593 18.9131C14.1593 18.9131 14.1646 18.9209 14.1735 18.9348C14.2102 18.9847 14.3112 19.1128 14.439 19.125L15.2573 19.2054L15.2603 19.2054C15.2949 19.2054 15.3425 19.1899 15.4012 19.1708C15.495 19.1404 15.6168 19.1007 15.758 19.1007C15.8824 19.1007 16.0211 19.1323 16.1695 19.2252C16.1695 19.2252 16.2441 19.1667 16.3646 19.1602C16.3738 19.1595 16.3844 19.1595 16.3926 19.1595C16.701 19.1595 16.8578 19.3925 17.0169 19.6292C17.0471 19.6741 17.0775 19.7192 17.1089 19.7629C17.2565 19.9722 17.455 20.2821 17.455 20.2821C17.3817 20.368 17.314 20.4163 17.2001 20.4163C17.169 20.4163 17.1334 20.4139 17.0944 20.4058C16.8682 20.3645 16.7534 20.0806 16.6538 19.8347C16.5803 19.6532 16.5151 19.4922 16.4197 19.4652ZM12.023 20.2002C12.023 20.2002 12.3063 20.0841 12.3314 20.002L12.2934 19.9076C12.2667 19.8466 12.2706 19.7802 12.3221 19.7439L12.6276 19.5339L13.1377 19.6316C13.1377 19.6316 13.0456 19.5166 13.0545 19.3627L12.5671 19.2603L12.1082 19.5383C11.911 19.6851 11.8969 19.9247 11.9619 20.0669L12.023 20.2002ZM15.9363 21.5197C15.8257 21.5197 15.7243 21.521 15.6332 21.525L15.8729 20.782C15.8981 20.713 15.8202 20.6304 15.7427 20.5481C15.7054 20.5085 15.6682 20.469 15.6428 20.4314C15.761 20.505 16.0664 20.6666 16.2136 20.7313C16.1988 20.7554 15.9363 21.5197 15.9363 21.5197Z" fill="#FFFFFF" fill-opacity="1.000000" fill-rule="evenodd"/>
		<path id="Vector" d="M16.5201 16.7728L10.8729 16.7728L10.8729 13.5291C10.8729 13.2148 10.7805 12.899 10.6711 12.6072L13.2162 12.6072C13.4583 12.8464 13.695 12.9956 13.9206 13.0775C13.8915 13.1929 13.8525 13.4312 13.9612 13.6691C14.05 13.8606 14.2105 14.0082 14.4433 14.1068C14.4681 14.3434 14.6193 14.6997 15.0351 14.8571C14.8524 15.0402 14.6755 15.2128 14.6038 15.2821L12.9144 15.2555C12.8761 15.2363 12.8107 15.1934 12.7816 15.1328C12.7798 15.1283 12.7775 15.1248 12.7751 15.1212C12.773 15.1182 12.7709 15.1151 12.7691 15.1112L13.0448 15.1555C13.0508 15.1561 13.0567 15.1561 13.0627 15.1561C13.1158 15.1561 13.1624 15.1198 13.171 15.0654C13.1799 15.0044 13.1393 14.9485 13.0798 14.9396L12.7403 14.8864L13.1168 13.5928L12.7602 12.8464L12.1892 13.4473L12.1545 14.792L11.7708 14.7316C11.7114 14.7201 11.6549 14.7628 11.6443 14.8226C11.6354 14.8817 11.6757 14.938 11.7358 14.9485L11.8969 14.9728C11.8395 15.0054 11.8015 15.0312 11.7969 15.0349L11.7642 15.0576L11.7553 15.0977C11.6618 15.475 11.8728 15.8333 12.1013 15.9933L12.0928 16.0409C12.0835 16.0988 12.097 16.1553 12.1321 16.203C12.1654 16.2513 12.2156 16.2802 12.2734 16.2903C12.285 16.2927 12.2975 16.2937 12.3091 16.2937C12.4075 16.2937 12.494 16.2256 12.5178 16.1256C12.603 16.1362 12.6809 16.1379 12.7341 16.1379L12.7787 16.1379L14.9951 16.5369L15.0331 16.5118C15.2091 16.3893 15.8828 15.9012 16.1034 15.7389C16.1638 15.7911 16.2318 15.8378 16.3141 15.877C16.2421 16.1155 16.2377 16.4827 16.5201 16.7728ZM10.8729 16.9916L18.1332 16.9916L18.1346 19.7096C18.1346 20.6105 17.6033 21.2395 16.7655 21.4446L16.9058 20.7173L16.9076 20.707C16.9149 20.6664 16.9228 20.621 16.9286 20.5825C16.9682 20.5989 17.0102 20.6128 17.055 20.621C17.1075 20.6309 17.1557 20.6357 17.2 20.6357C17.414 20.6357 17.5388 20.5237 17.6218 20.428L17.7294 20.3031L17.6415 20.1665C17.6336 20.153 17.4385 19.8467 17.2891 19.637C17.2598 19.5958 17.2318 19.5544 17.2034 19.5104C17.033 19.2567 16.8196 18.9393 16.3927 18.9393L16.354 18.9399C16.2839 18.9445 16.2235 18.958 16.1744 18.9767C16.0403 18.9147 15.9012 18.8818 15.7576 18.8818C15.5809 18.8818 15.432 18.9301 15.3329 18.964C15.3242 18.9663 15.3157 18.9691 15.3076 18.9716C15.2894 18.9772 15.2729 18.9823 15.259 18.9846L14.4605 18.9064C14.4506 18.9048 14.4175 18.8856 14.3779 18.8387L14.3779 18.8347L14.5506 18.7657C14.5021 18.1929 13.9496 17.8406 13.6412 17.7213C13.6277 17.6638 13.5999 17.6066 13.5517 17.5598L13.38 17.3979L13.2291 17.5776L13.1548 17.6698L12.0359 17.2122L12.7641 18.1217L12.4771 18.5544C12.3718 18.6659 12.4877 18.7769 12.4877 18.7769L12.7846 18.9807L13.092 18.8663C13.0995 18.8663 13.1063 18.8674 13.1131 18.8685C13.1162 18.869 13.1192 18.8695 13.1224 18.8699C13.1139 18.8958 13.1042 18.9645 13.095 19.0289C13.0878 19.0793 13.0811 19.1272 13.0755 19.1495L12.5415 19.0452L11.9808 19.3602C11.6925 19.5712 11.6532 19.9197 11.7602 20.1582L11.8223 20.2936L11.9105 20.4849L12.1073 20.4042C12.1099 20.4038 12.1126 20.4023 12.1139 20.401C12.0436 20.6251 12.0723 20.8385 12.1978 20.9781L12.3173 21.1271L12.4758 21.3262L12.6499 21.1405C12.7007 21.09 12.8671 20.9045 12.9183 20.7465L12.9557 20.6251L12.8711 20.5319L12.8566 20.5155L12.9527 20.3584L13.6494 20.5217L13.806 20.5579L13.8892 20.4209L13.9348 20.3463C13.9434 20.3302 13.9453 20.3278 13.9777 20.3278C14.0021 20.3278 14.0269 20.3302 14.0536 20.3363C14.3168 20.3856 14.5592 20.4103 14.7742 20.4103C14.9832 20.4103 15.1081 20.4023 15.2563 20.3534C15.2563 20.3534 15.6305 20.7765 15.6433 20.7919L15.4145 21.4961L15.4039 21.5382C14.9703 21.5732 14.759 21.6681 14.5038 21.9218C14.1332 21.5559 13.87 21.5172 12.8737 21.5172C11.681 21.5172 10.8729 20.821 10.8729 19.7096L10.8729 16.9916Z" fill="#FFDD2D" fill-opacity="1.000000" fill-rule="evenodd"/>
		<path id="Vector" d="M12.9467 5.62048L12.7565 5.60046L12.5755 5.57886C12.6588 5.7655 12.7198 5.94263 12.7638 6.08923C13.2455 5.82336 13.8687 5.67175 14.5021 5.67175C15.1387 5.67175 15.7622 5.82336 16.2424 6.08923C16.2859 5.94263 16.3474 5.7655 16.4306 5.57886L16.249 5.60046L16.0584 5.62048L15.9782 5.448L15.7355 4.93799L15.293 5.16699L15.1206 5.25439L14.9829 5.11902L14.5021 4.64575L14.0222 5.11902L13.8852 5.25439L13.7128 5.16699L13.2683 4.93799L13.0286 5.448L12.9467 5.62048ZM16.4112 6.51746C16.035 6.21838 15.3535 5.93738 14.5021 5.93738C13.6521 5.93738 12.9732 6.21838 12.5944 6.51746C12.5944 6.51746 12.4831 5.84766 12.1014 5.25708L12.7869 5.33459L13.1452 4.57617L13.8357 4.92981L14.5021 4.27246L15.1708 4.92981L15.8597 4.57617L16.2187 5.33459L16.9049 5.25708C16.5227 5.84766 16.4112 6.51746 16.4112 6.51746ZM13.1976 18.1707C13.1563 18.1667 13.122 18.199 13.1187 18.239C13.1158 18.2808 13.1468 18.3163 13.1887 18.3173C13.2293 18.3204 13.2643 18.2897 13.2682 18.2487C13.2699 18.2092 13.2398 18.1722 13.1976 18.1707ZM16.5631 23.8696L16.2316 22.9617C16.6258 22.8424 17.3044 22.5854 17.6081 22.4142L17.4058 23.0751L18.0929 23.302C17.6772 23.5098 17.1733 23.7034 16.5631 23.8696ZM14.5039 24.6858C13.7047 24.6858 12.7926 24.5029 12.5238 24.4077L12.932 23.3083C13.2704 23.407 13.9755 23.5112 14.4867 23.5079L14.488 23.5079L14.5039 23.5079L14.5177 23.5079L14.5194 23.5079C15.0302 23.5112 15.7343 23.407 16.0747 23.3083L16.4823 24.4077C16.2134 24.5029 15.3014 24.6858 14.5039 24.6858ZM10.9129 23.302L11.601 23.0748L11.3973 22.4142C11.7008 22.5853 12.3803 22.8423 12.7739 22.9617L12.442 23.8695C11.8342 23.7032 11.328 23.5098 10.9129 23.302ZM18.1238 23.1003L17.7054 22.941L17.821 22.5105L17.9481 22.0419C17.9481 22.0419 17.2071 22.442 16.1626 22.7426C15.8664 22.8269 15.6422 22.8655 15.6422 22.8655L15.6422 23.1848C15.6422 23.1848 15.0834 23.2814 14.5194 23.2814L14.5125 23.2814L14.5039 23.2814L14.493 23.2814L14.4867 23.2814C13.9217 23.2814 13.364 23.1848 13.364 23.1848L13.364 22.8655C13.364 22.8655 13.1394 22.8269 12.8435 22.7426C11.799 22.442 11.059 22.0419 11.059 22.0419L11.1841 22.5105L11.3017 22.941L10.8823 23.1003L10.417 23.2736C10.468 23.2982 10.521 23.3239 10.5756 23.3502C11.091 23.5996 11.7541 23.9205 12.3657 24.087L12.2062 24.5209C12.2062 24.5209 13.0641 24.9099 14.493 24.9135L14.493 24.9142L14.4973 24.9142L14.5039 24.9142L14.5092 24.9142L14.5125 24.9142L14.5125 24.9135C15.9433 24.9099 16.8003 24.5209 16.8003 24.5209L16.6402 24.087C17.2567 23.9191 17.9266 23.5944 18.4427 23.344C18.4926 23.3198 18.5413 23.2963 18.5882 23.2736L18.1238 23.1003ZM25.2926 17.2034C25.2926 17.2034 24.9965 17.7167 24.3163 17.7167L24.3079 17.7167C23.4912 17.7118 23.1624 17.2162 23.1624 17.2162C23.1624 17.2162 23.2093 17.861 22.9154 18.7308C22.5615 19.7803 22.9187 20.5293 22.9187 20.5293C22.9187 20.5293 22.7276 20.5806 22.5083 20.5806C22.4244 20.5806 22.3369 20.5724 22.2539 20.5513C21.5721 20.3896 21.4023 19.7717 21.4023 19.7717C21.4023 19.7717 21.4648 21.8586 19.0201 21.8586L19.0009 21.8586C19.0009 21.8586 19.2165 21.5669 19.28 20.7281C19.3961 19.1798 20.4496 18.9669 20.4496 18.9669C20.4496 18.9669 19.8872 18.8965 19.6439 18.6793C19.2624 18.3358 19.2895 17.9385 19.2895 17.9385C20.1498 17.9268 20.7135 17.6351 21.1427 17.1411C21.608 16.6058 21.6841 16.0291 21.6841 16.0291C21.6841 16.0291 21.2217 16.4462 20.3274 16.4462C20.2489 16.4462 20.1649 16.4426 20.0784 16.4341C19.6554 16.4 19.3628 16.1323 19.3628 16.1323C20.2937 15.5385 20.947 14.5015 20.3678 12.9404C19.9038 11.6896 18.7889 10.7549 17.6661 10.0509C17.2927 9.81897 17.0847 9.56067 17.0847 9.33875C17.0847 9.01831 17.3652 8.88794 17.6527 8.75427C17.8345 8.6698 18.0191 8.58398 18.1377 8.44812C18.4913 8.03967 18.2695 7.37805 17.9634 6.97937C17.9634 6.97937 18.0663 6.95837 18.2292 6.95837C18.5524 6.95837 19.1116 7.03894 19.5709 7.51343C20.1811 8.14148 19.9281 8.82605 19.9281 8.82605L20.0916 8.85767C20.1848 8.87732 20.2777 8.88184 20.3734 8.88647L20.3875 8.88721C20.3984 8.88721 20.4095 8.88757 20.4205 8.88782C20.4316 8.88818 20.4427 8.88855 20.4535 8.88855C21.3399 8.88855 21.7361 7.96594 21.7361 7.96594C21.7361 7.96594 22.6786 9.11963 21.291 10.024C21.0522 10.1788 20.947 10.3224 20.9747 10.4746L20.9961 10.5752L21.0949 10.5925C22.0569 10.8522 22.5645 11.4954 23.1503 12.2375L23.1507 12.2379L23.1539 12.2419L23.1558 12.2443L23.1565 12.2451L23.1582 12.2473L23.16 12.2498L23.1613 12.2512C23.1843 12.2806 23.2077 12.3101 23.231 12.3397C24.1752 13.5337 25.51 13.5721 25.6748 13.5721L25.693 13.5721C25.693 13.5721 25.3882 14.5294 24.4903 14.5294C24.475 14.5294 24.4621 14.5294 24.4476 14.5284C24.0352 14.5137 23.8235 14.3569 23.8235 14.3569C23.8235 14.3569 23.6627 16.5295 25.2926 17.2034ZM24.4905 14.8226C25.5915 14.8226 25.96 13.7079 25.9748 13.6602L26.098 13.2671L25.6853 13.28L25.6838 13.28C25.5383 13.28 24.3231 13.248 23.4621 12.1586L23.3809 12.0577L23.3767 12.0524C22.8156 11.3422 22.2821 10.6671 21.3301 10.3589C21.358 10.3342 21.3973 10.3037 21.4514 10.2686C21.9579 9.93762 22.2525 9.53467 22.3264 9.06738C22.4348 8.36438 21.9837 7.80334 21.9639 7.78064L21.6575 7.40369L21.4659 7.85095L21.4656 7.85156C21.4493 7.88745 21.1271 8.5957 20.4538 8.5957L20.4029 8.5957C20.391 8.59509 20.3792 8.59436 20.3675 8.59375C20.334 8.59192 20.3009 8.59021 20.2689 8.58752C20.2925 8.26843 20.2342 7.7738 19.7831 7.30945C19.2411 6.75098 18.5767 6.66687 18.2294 6.66687C18.0657 6.66687 17.9505 6.68481 17.9162 6.69019C17.9115 6.6908 17.9084 6.69141 17.9066 6.69153L17.4438 6.78296L17.7298 7.15759C17.9532 7.44641 18.1567 7.97949 17.9157 8.25757C17.843 8.34131 17.6977 8.41016 17.5541 8.47815L17.5287 8.49023C17.2173 8.63281 16.791 8.8324 16.791 9.33887C16.791 9.66614 17.0465 10.0093 17.5099 10.3008C18.8806 11.1586 19.7266 12.0541 20.0918 13.0424C20.6572 14.5627 19.9194 15.4299 19.2039 15.8868L18.8822 16.0922L19.1632 16.3492L19.1635 16.3495C19.203 16.3839 19.546 16.6842 20.0531 16.7274C20.1497 16.7334 20.2415 16.739 20.3277 16.739C20.653 16.739 20.9305 16.6881 21.1561 16.6193C21.0941 16.7274 21.0174 16.8383 20.922 16.949C20.5125 17.4207 20.009 17.6353 19.2851 17.6471L19.0159 17.6514L18.9955 17.9198C18.9929 17.9741 18.9724 18.4719 19.4462 18.8956C19.5186 18.9614 19.606 19.0153 19.6982 19.0588C19.3766 19.3468 19.0502 19.8483 18.9872 20.7067C18.9337 21.4238 18.7623 21.6888 18.7601 21.6918L18.4625 22.1437L19.0001 22.1509C19.8882 22.1509 20.5677 21.9073 21.039 21.4238C21.3177 21.1381 21.4769 20.8149 21.571 20.5293C21.7252 20.6605 21.9246 20.7755 22.1851 20.8365C22.2839 20.8596 22.3915 20.8717 22.5085 20.8717C22.7524 20.8717 22.9583 20.8215 22.9904 20.8138L22.9926 20.8132L23.3356 20.7225L23.184 20.4042L23.1834 20.4026C23.165 20.3596 22.8914 19.7252 23.1946 18.8262C23.3274 18.4315 23.3951 18.0781 23.4281 17.8032C23.6445 17.915 23.9337 18.0076 24.3078 18.0089C25.1446 18.0089 25.5204 17.3958 25.5472 17.3522L25.5482 17.3506L25.7155 17.0608L25.4056 16.9335C24.393 16.5153 24.1692 15.3918 24.1243 14.7842C24.2158 14.8016 24.3203 14.8177 24.4383 14.821L24.4905 14.8226ZM23.9235 10.3557C23.6973 10.1229 23.4582 10.0536 23.2531 10.0536C22.9344 10.0536 22.6957 10.2212 22.6957 10.2212C23.1584 10.4663 23.4223 10.7914 23.644 11.0645C23.8328 11.2971 23.991 11.4919 24.2155 11.5674C24.2982 11.5959 24.3819 11.6085 24.4653 11.6085C24.8253 11.6085 25.1728 11.3767 25.293 11.1125C25.293 11.1125 24.6332 11.0724 23.9235 10.3557ZM23.4154 11.2483C23.2056 10.9896 22.9662 10.6978 22.5557 10.4802L22.1341 10.2545L22.5257 9.9801L22.5307 9.97681C22.5818 9.94434 22.8697 9.76111 23.2531 9.76111C23.5797 9.76111 23.8832 9.8949 24.1339 10.1489C24.7434 10.7684 25.2914 10.8185 25.3112 10.8191L25.7368 10.8441L25.5607 11.2325C25.3861 11.62 24.9248 11.8997 24.4655 11.8997C24.3472 11.8997 24.2319 11.882 24.1236 11.8448C23.821 11.7451 23.6266 11.5071 23.4229 11.2577L23.4154 11.2483ZM22.7485 14.3505L22.7485 14.3652C22.5014 12.3809 21.0538 10.9476 19.4422 10.0768C19.2937 9.99719 19.1556 9.93018 19.0225 9.86572C19.5126 9.94128 20.3029 9.9502 20.9124 9.42407C20.9124 9.42407 19.9795 10.1069 18.0686 9.48645C18.2218 9.58557 18.4172 9.69641 18.6402 9.823C19.186 10.1327 19.8975 10.5365 20.564 11.0909C22.91 13.1427 21.2317 15.1438 21.2317 15.1438C22.0744 14.2679 22.1094 13.3303 21.8615 12.564C22.3056 13.2998 22.5897 14.192 22.545 15.2927C22.4803 16.8699 21.6098 18.2335 20.6931 19.3292C20.2526 19.8612 20.1545 20.5146 20.1545 20.5146C20.1545 20.5146 20.3325 19.9379 20.8421 19.3447C21.8238 18.2003 22.6639 17.0123 22.7735 15.2993C22.8753 15.6102 23.2937 16.4739 23.957 16.7993C23.957 16.7993 23.1233 16.2993 22.7485 14.3505ZM7.60294 19.7717C7.60294 19.7717 7.54053 21.8586 9.9855 21.8586L10.003 21.8586C10.003 21.8586 9.78903 21.5669 9.72629 20.7281C9.61005 19.1796 8.55597 18.9669 8.55597 18.9669C8.55597 18.9669 9.11865 18.8966 9.3627 18.6793C9.74313 18.3358 9.71603 17.9385 9.71603 17.9385C8.8558 17.9268 8.29279 17.6351 7.8605 17.1411C7.39819 16.606 7.32159 16.0291 7.32159 16.0291C7.32159 16.0291 7.78387 16.4462 8.67715 16.4462C8.75742 16.4462 8.84061 16.4426 8.92712 16.4341C9.35114 16.4003 9.64407 16.1323 9.64407 16.1323C8.71182 15.5385 8.05896 14.5018 8.63751 12.9404C9.10117 11.6896 10.2157 10.7549 11.3391 10.051C11.7122 9.81897 11.92 9.56067 11.92 9.33875C11.92 9.01843 11.6399 8.88806 11.3525 8.75427C11.1709 8.6698 10.9864 8.58386 10.8679 8.44788C10.5145 8.03967 10.7358 7.37769 11.0413 6.97937C11.0413 6.97937 10.9398 6.95837 10.7764 6.95837C10.4534 6.95837 9.89471 7.03894 9.43503 7.51343C8.82312 8.14148 9.07739 8.82605 9.07739 8.82605L8.91391 8.85767C8.823 8.87695 8.73123 8.88171 8.63861 8.88647L8.61771 8.88757C8.6062 8.88757 8.59537 8.88782 8.58463 8.88806C8.57416 8.88831 8.56375 8.88855 8.55298 8.88855C7.66403 8.88855 7.26974 7.96631 7.26974 7.96631C7.26974 7.96631 6.32758 9.11963 7.71521 10.024C7.95395 10.1785 8.05896 10.3221 8.03091 10.4746L8.00977 10.5752L7.90872 10.5925C6.9472 10.8528 6.43887 11.4966 5.85187 12.2401C5.82581 12.2731 5.79959 12.3063 5.77313 12.3397C4.83002 13.5337 3.49591 13.5721 3.33014 13.5721L3.31165 13.5721C3.31165 13.5721 3.61646 14.5294 4.51498 14.5294C4.52917 14.5294 4.54272 14.5294 4.55759 14.5284C4.9707 14.5137 5.18237 14.3569 5.18237 14.3569C5.18237 14.3569 5.34189 16.5295 3.7132 17.2034C3.7132 17.2034 4.00974 17.7163 4.68967 17.7163L4.6976 17.7163C5.51492 17.7118 5.84348 17.2162 5.84348 17.2162C5.84348 17.2162 5.79593 17.861 6.08884 18.7308C6.44318 19.7803 6.08786 20.5293 6.08786 20.5293C6.08786 20.5293 6.2774 20.5806 6.49734 20.5806C6.58221 20.5806 6.66937 20.5724 6.75095 20.5509C7.43253 20.3896 7.60294 19.7717 7.60294 19.7717ZM10.2448 21.6899C10.2453 21.6908 10.2456 21.6913 10.2456 21.6914L10.5432 22.1437L10.0056 22.1509C9.11758 22.1509 8.43866 21.907 7.96609 21.424C7.68839 21.1381 7.52856 20.8149 7.43509 20.5293C7.28189 20.6605 7.08044 20.7755 6.81989 20.8365C6.72214 20.8596 6.61417 20.8717 6.49759 20.8717C6.24857 20.8717 6.03757 20.8193 6.01373 20.8134L6.01349 20.8132L5.66971 20.7225L5.82193 20.4042L5.823 20.4017C5.84439 20.3513 6.11295 19.7192 5.81104 18.8262C5.67828 18.4312 5.61063 18.0781 5.57758 17.8032C5.36127 17.915 5.07233 18.0076 4.7005 18.0085C3.85617 18.0085 3.47961 17.387 3.45798 17.3514L3.45755 17.3506L3.29044 17.0604L3.59952 16.9335C4.612 16.5153 4.83655 15.3918 4.88245 14.7842C4.78934 14.8016 4.68466 14.8177 4.56842 14.821L4.51526 14.8226C3.4136 14.8226 3.04608 13.7079 3.03156 13.6603L2.9054 13.2671L3.32016 13.28C3.46579 13.28 4.68301 13.248 5.54324 12.1586L5.62448 12.0577L5.63025 12.0504C6.19083 11.3409 6.72345 10.6669 7.67584 10.359C7.6481 10.3344 7.61014 10.3037 7.55499 10.2686C7.0484 9.93762 6.75351 9.53467 6.68021 9.06738C6.57263 8.37769 7.00543 7.82458 7.03839 7.78259L7.03983 7.78064L7.34958 7.40369L7.54044 7.85095C7.55267 7.87927 7.87366 8.5957 8.55325 8.5957L8.60312 8.5957C8.61453 8.59509 8.62582 8.59448 8.63699 8.59387C8.67081 8.59204 8.7038 8.59021 8.73651 8.58752C8.71341 8.26807 8.77252 7.77417 9.22394 7.30908C9.76584 6.75098 10.4289 6.66687 10.7766 6.66687C10.9416 6.66687 11.056 6.68494 11.0894 6.69019C11.0938 6.69092 11.0967 6.69141 11.0983 6.69153L11.5636 6.78296L11.2763 7.15759C11.0521 7.44617 10.8486 7.97949 11.0901 8.25757C11.1619 8.34045 11.3049 8.40845 11.4469 8.47595L11.4771 8.49023C11.7888 8.63281 12.2138 8.8324 12.2138 9.33887C12.2138 9.66614 11.9602 10.0093 11.4969 10.3008C10.1241 11.1586 9.27942 12.0541 8.91418 13.0424C8.34982 14.5627 9.08459 15.4297 9.80283 15.8868L10.1241 16.0923L9.84247 16.3492C9.80447 16.3828 9.46039 16.6841 8.95184 16.7274C8.85608 16.7334 8.76492 16.739 8.6774 16.739C8.35114 16.739 8.07507 16.6881 7.84985 16.6193C7.91263 16.7274 7.98923 16.8379 8.08398 16.949C8.49313 17.4204 8.99805 17.6353 9.7196 17.6471L9.99072 17.6514L10.0089 17.9198C10.0122 17.9741 10.0327 18.4719 9.55911 18.8956C9.48645 18.9614 9.4003 19.0153 9.30682 19.0588C9.62912 19.3468 9.95538 19.8483 10.0194 20.7067C10.0722 21.3971 10.2321 21.6682 10.2448 21.6899ZM5.0817 10.3553C5.30853 10.1229 5.5473 10.0532 5.75339 10.0532C6.0704 10.0532 6.31046 10.2208 6.31046 10.2208C5.84906 10.4658 5.58499 10.7902 5.36298 11.0629C5.17297 11.2963 5.01379 11.4918 4.78812 11.5674C4.70755 11.5959 4.62366 11.6084 4.5401 11.6084C4.18048 11.6084 3.83209 11.3767 3.71323 11.1125C3.71323 11.1125 4.37302 11.0724 5.0817 10.3553ZM4.53998 11.8997C4.65817 11.8997 4.7731 11.8822 4.88208 11.8451C5.18582 11.745 5.38037 11.5063 5.58395 11.2566L5.59076 11.2483L5.59668 11.241C5.80621 10.9845 6.04205 10.6958 6.44934 10.4802L6.87204 10.2544L6.4794 9.97998L6.47409 9.97668C6.42255 9.94385 6.13589 9.76111 5.75323 9.76111C5.42596 9.76111 5.12216 9.89453 4.87152 10.1489C4.26193 10.7688 3.71539 10.8187 3.69559 10.8191L3.27023 10.844L3.44495 11.2325C3.6203 11.62 4.0816 11.8997 4.53998 11.8997ZM7.14423 12.564C6.69974 13.2998 6.41574 14.1918 6.46164 15.2927C6.52539 16.87 7.39584 18.2338 8.31058 19.3292C8.75308 19.8607 8.85248 20.5146 8.85248 20.5146C8.85248 20.5146 8.67282 19.9379 8.16364 19.3444C7.18185 18.2003 6.3421 17.0116 6.23114 15.2993C6.12943 15.6102 5.7117 16.474 5.04926 16.7993C5.04926 16.7993 5.88245 16.2996 6.25656 14.3502L6.25656 14.3657C6.50458 12.381 7.95197 10.9478 9.56378 10.0768C9.69632 10.0055 9.82193 9.94409 9.94159 9.8855L9.98318 9.86511C9.49347 9.94141 8.70322 9.95032 8.09329 9.42407C8.09329 9.42407 9.02652 10.1071 10.9369 9.48657C10.7837 9.58545 10.5888 9.69617 10.3663 9.82251C9.82062 10.1323 9.10931 10.5364 8.44266 11.0911C6.09576 13.1428 7.77463 15.1443 7.77463 15.1443C6.9299 14.2681 6.89624 13.3301 7.14423 12.564ZM13.9507 11.2777L13.9507 11.6711C14.0871 11.5061 14.3503 11.5399 14.3503 11.5399L14.3503 12.1068C14.3503 12.1068 14.3413 12.3861 14.2416 12.5067L14.5276 12.5067L14.8119 12.5067C14.7138 12.3861 14.7036 12.1068 14.7036 12.1068L14.7036 11.5399C14.7036 11.5399 14.9677 11.5061 15.1028 11.6711L15.1028 11.2777L14.5276 11.2777L13.9507 11.2777ZM13.9925 9.11279C13.9707 9.10571 13.8694 9.07288 13.7056 8.94373C13.4038 8.71082 13.3979 8.49622 13.3979 8.49622L14.0681 8.77649L14.0681 9.14685L13.9968 9.11426C13.9965 9.11414 13.995 9.11365 13.9925 9.11279ZM15.2993 8.94373C15.6021 8.71082 15.608 8.49622 15.608 8.49622L14.9374 8.77649L14.9374 9.14685L15.0084 9.11426C15.0088 9.11414 15.0103 9.11365 15.0128 9.11279C15.0345 9.10571 15.1359 9.07288 15.2993 8.94373ZM12.8877 7.32227L14.5022 7.95691L16.117 7.32227C15.9806 6.99854 15.3475 6.72388 14.5022 6.72278C13.6581 6.72388 13.0254 6.99854 12.8877 7.32227ZM14.6207 10.5144L15.7061 9.94592L16.0932 7.71277L14.6207 8.21033L14.6207 10.5144ZM16.8746 10.8438L16.3782 10.5571L15.8683 10.2664L14.5061 11.0045L14.5022 11.0015L14.4995 11.0045L13.1373 10.2664L12.6275 10.5571L12.1302 10.8438L12.1249 10.8438L11.9991 10.9164C12.2794 10.9933 12.4924 11.1313 12.6734 11.3147C12.6762 11.3175 12.6789 11.3204 12.6815 11.3235C12.6855 11.3281 12.6897 11.3328 12.6948 11.3368C12.7348 11.3795 12.7744 11.4261 12.8124 11.4728C12.8141 11.4749 12.8157 11.4768 12.8174 11.4788C12.8245 11.4874 12.8316 11.4958 12.8388 11.5063C12.8738 11.5524 12.9091 11.6019 12.9435 11.6522C12.9478 11.6578 12.952 11.6642 12.9563 11.6707C12.9596 11.6757 12.963 11.6808 12.9666 11.6858C13.0076 11.7469 13.0462 11.811 13.0845 11.8767C13.4372 12.4824 14.0012 12.8446 14.5022 12.8452C15.0038 12.8446 15.5675 12.4824 15.9208 11.8767C15.9598 11.8093 15.9994 11.7437 16.0403 11.6827C16.0463 11.6743 16.0529 11.665 16.0585 11.6561C16.0932 11.6039 16.1298 11.553 16.1678 11.504C16.172 11.4985 16.1762 11.4933 16.1802 11.4883C16.1839 11.4835 16.1876 11.4789 16.191 11.4745C16.2303 11.4261 16.2709 11.3792 16.3121 11.3351C16.3154 11.332 16.3184 11.329 16.3215 11.326C16.3249 11.3225 16.3284 11.3191 16.332 11.316C16.5119 11.1329 16.7256 10.9933 17.0059 10.9164L16.881 10.8438L16.8746 10.8438ZM18.1324 13.5288C18.1324 13.2146 18.2241 12.8988 18.3351 12.6069L15.7894 12.6069C15.3997 12.9918 15.0256 13.1348 14.691 13.1676C14.6306 13.1738 14.5692 13.1779 14.5071 13.1779L14.5021 13.1779L14.4985 13.1779C14.4364 13.1779 14.3744 13.1738 14.3142 13.1676C14.2558 13.1627 14.1944 13.1534 14.133 13.1394C14.1111 13.2262 14.0831 13.4066 14.1627 13.5787C14.234 13.7343 14.3773 13.8502 14.587 13.9271L14.6577 13.9545L14.6587 14.03C14.6587 14.0527 14.6752 14.5431 15.2118 14.6791L15.2151 14.6758C15.3013 14.5874 15.3796 14.5071 15.438 14.4402C15.3284 14.1829 15.3858 13.9205 15.5453 13.7921C15.5384 13.8193 15.4684 14.4625 15.9862 14.7014L16.0717 14.7422L16.0463 14.8329C16.038 14.8599 15.8653 15.4823 16.4924 15.714L16.6034 15.7554L16.5544 15.8629C16.5433 15.8872 16.2976 16.4518 16.8768 16.7722L18.1333 16.7722L18.1333 15.78C17.6869 15.7255 17.4973 15.3683 17.4485 15.1149C17.2411 15.0797 17.0802 14.99 16.9696 14.8447C16.7343 14.5356 16.8904 14.2502 16.9282 14.181C16.9327 14.1727 16.9356 14.1676 16.936 14.1658C16.9356 14.1687 16.936 14.5056 17.1449 14.7133C17.248 14.8132 17.3711 14.8911 17.5561 14.9084L17.6476 14.917L17.6558 15.0098C17.6574 15.0298 17.7074 15.4856 18.1333 15.5569L18.1324 13.5288ZM16.9058 20.717L16.7655 21.4443C17.6033 21.2391 18.1346 20.6102 18.1346 19.7095L18.1333 16.9915L10.8726 16.9915L10.8726 19.7095C10.8726 20.8213 11.681 21.517 12.8738 21.517C13.8704 21.517 14.133 21.5558 14.5038 21.9215C14.7591 21.6678 14.9701 21.5731 15.404 21.5381L15.4142 21.4957L15.6434 20.7922C15.6305 20.7759 15.2564 20.3533 15.2564 20.3533C15.1078 20.4022 14.983 20.4104 14.7743 20.4104C14.5593 20.4104 14.3166 20.3855 14.0537 20.3362C14.0273 20.3302 14.0025 20.3279 13.9778 20.3279C13.9454 20.3279 13.9437 20.3302 13.9348 20.3459L13.8896 20.4205L13.8064 20.5577L13.6492 20.5215L12.9527 20.3583L12.8573 20.5153L12.8715 20.5321L12.9557 20.625L12.9181 20.746C12.8672 20.9044 12.7008 21.0897 12.6499 21.1403L12.4759 21.3267L12.3174 21.1268L12.1982 20.978C12.073 20.8384 12.0439 20.625 12.1146 20.4006C12.1129 20.4022 12.11 20.4032 12.1074 20.4038L11.9109 20.4847L11.8227 20.2938L11.7603 20.1583C11.6533 19.9193 11.6926 19.571 11.9809 19.36L12.5416 19.0452L13.0756 19.1498C13.0813 19.1268 13.0883 19.0778 13.0956 19.0261C13.1046 18.9626 13.1141 18.8955 13.1225 18.8698C13.119 18.8693 13.1157 18.8688 13.1124 18.8682C13.1057 18.8669 13.099 18.8657 13.0918 18.8657L12.7846 18.9801L12.4878 18.7771C12.4878 18.7771 12.3722 18.6653 12.4769 18.5543L12.7638 18.1213L12.0363 17.212L13.1548 17.6694L13.2295 17.5774L13.3804 17.3977L13.5518 17.5597C13.6003 17.6064 13.6281 17.6635 13.6416 17.7209C13.9493 17.8401 14.5021 18.1927 14.551 18.7657L14.378 18.835L14.378 18.8385C14.4179 18.8855 14.4503 18.9045 14.4605 18.9065L15.2594 18.9847C15.2726 18.9822 15.288 18.9773 15.3051 18.9722C15.3141 18.9695 15.3235 18.9666 15.3333 18.9636C15.4321 18.9304 15.581 18.8815 15.758 18.8815C15.9016 18.8815 16.0403 18.9141 16.1744 18.9766C16.2237 18.9581 16.2841 18.9443 16.3544 18.9399L16.3927 18.939C16.8198 18.939 17.0325 19.2557 17.2028 19.5093L17.2034 19.5103C17.2318 19.5546 17.2598 19.5953 17.2893 19.6367C17.4388 19.8464 17.6334 20.1525 17.6416 20.1661L17.7294 20.303L17.6218 20.4279C17.5388 20.5236 17.4138 20.6355 17.1997 20.6355C17.1559 20.6355 17.108 20.6306 17.0552 20.6207C17.0099 20.6122 16.9684 20.5988 16.9287 20.5823C16.9224 20.624 16.9134 20.674 16.9058 20.717ZM12.3312 20.0016L12.2936 19.9075C12.2665 19.8464 12.2701 19.78 12.322 19.7439L12.6274 19.5342L13.1375 19.6315C13.1375 19.6315 13.0454 19.5165 13.0543 19.3627L12.5673 19.2601L12.108 19.5382C11.9109 19.6851 11.8967 19.9246 11.9621 20.0669L12.0228 20.2001C12.0228 20.2001 12.3065 20.084 12.3312 20.0016ZM16.5321 21.489L16.689 20.6759C16.7064 20.5872 16.723 20.4683 16.723 20.4683C16.7141 20.4594 16.7036 20.4492 16.6919 20.4379C16.6215 20.3694 16.504 20.2555 16.4333 20.1216C16.375 20.0099 16.364 19.9263 16.3516 19.8319C16.3407 19.7473 16.3284 19.6542 16.2801 19.5243C16.2801 19.5243 16.3115 19.4607 16.3842 19.4607C16.3953 19.4607 16.4078 19.4619 16.4198 19.4652C16.515 19.4921 16.5801 19.6528 16.6535 19.8344C16.7529 20.0802 16.868 20.3641 17.0945 20.4058C17.1333 20.4133 17.1688 20.416 17.1997 20.416C17.3141 20.416 17.3818 20.368 17.4547 20.2819C17.4547 20.2819 17.2566 19.9724 17.109 19.7633C17.0778 19.7197 17.0476 19.6749 17.0175 19.6301C16.858 19.3928 16.7011 19.1592 16.3927 19.1592C16.3842 19.1592 16.3735 19.1592 16.3647 19.1605C16.2438 19.1661 16.1694 19.225 16.1694 19.225C16.0212 19.1323 15.8825 19.1007 15.758 19.1007C15.6167 19.1007 15.4947 19.1404 15.4009 19.171C15.3423 19.1901 15.2948 19.2057 15.2604 19.2057L15.257 19.2057L14.4394 19.1248C14.3113 19.1128 14.2099 18.9847 14.1736 18.9342C14.1647 18.9207 14.1597 18.9125 14.1597 18.9125C14.1597 18.8906 14.1597 18.8678 14.1584 18.8477C14.1307 18.1818 13.6125 17.897 13.4279 17.8922C13.4279 17.8922 13.4497 17.7661 13.3999 17.7174L13.2192 17.9353L12.6275 17.6396L13.0502 18.1309L12.6925 18.5306C12.6473 18.5762 12.6529 18.6375 12.6717 18.6633L12.8263 18.7993L13.0224 18.6814C13.032 18.6738 13.0502 18.6719 13.0713 18.6719C13.0964 18.6719 13.1273 18.6748 13.1605 18.678C13.1991 18.6818 13.2408 18.6858 13.28 18.6858C13.3599 18.6858 13.4289 18.6688 13.4372 18.5942C13.4298 18.6688 13.4037 18.7599 13.375 18.8601C13.3085 19.0916 13.2282 19.3715 13.3338 19.6068L13.4461 19.8618L12.7226 19.7578L12.3841 20.327C12.2794 20.5162 12.2632 20.7211 12.3633 20.8328L12.4901 20.9905C12.4901 20.9905 12.6678 20.8032 12.7074 20.6797L12.6499 20.6168C12.6014 20.5635 12.604 20.5162 12.6338 20.4594L12.8458 20.1093L13.6997 20.3092L13.7453 20.2329C13.8031 20.137 13.8863 20.1084 13.9778 20.1084C14.0157 20.1084 14.0544 20.1127 14.0943 20.1193C14.2528 20.1504 14.5134 20.1918 14.7743 20.1918C15.0602 20.1918 15.3449 20.1409 15.4962 19.9724C15.6545 20.2059 15.8962 20.3391 16.0876 20.4445C16.2699 20.5448 16.4066 20.62 16.3825 20.7332L16.2177 21.5144C16.3266 21.51 16.432 21.5028 16.5321 21.489ZM15.6332 21.5247C15.724 21.5211 15.826 21.5199 15.936 21.5199C15.936 21.5199 16.1989 20.7552 16.2137 20.7308C16.0664 20.6664 15.761 20.505 15.6428 20.431C15.6682 20.4691 15.7057 20.5089 15.7432 20.5487C15.8204 20.6306 15.8981 20.713 15.8726 20.7821L15.6332 21.5247ZM12.4075 13.5367L12.3735 14.8275L12.5211 14.8501L12.8817 13.611L12.6988 13.2301L12.4075 13.5367ZM12.776 15.431C12.7162 15.3932 12.6304 15.3271 12.5825 15.2275C12.5283 15.1129 12.4501 15.0597 12.3362 15.0597C12.1876 15.0597 12.0291 15.1484 11.9608 15.1902C11.9066 15.5085 12.1423 15.7971 12.3005 15.8552C12.4438 15.9071 12.6178 15.918 12.707 15.918C12.7082 15.9142 12.7096 15.9099 12.7111 15.9053C12.7139 15.897 12.7171 15.8876 12.7198 15.8773C12.7274 15.8513 12.7347 15.8247 12.7407 15.7964C12.7654 15.6682 12.7743 15.524 12.776 15.431ZM14.9446 16.3032C15.154 16.1577 15.7309 15.7386 15.9545 15.5747C15.7917 15.338 15.7762 15.057 15.8128 14.8599C15.7061 14.7919 15.6249 14.7146 15.5599 14.6331C15.3127 14.9014 14.851 15.3485 14.7455 15.4506C14.7344 15.4614 14.7272 15.4684 14.7247 15.4708L14.692 15.5037L12.9996 15.4767C12.9983 15.644 12.9712 15.7856 12.9448 15.8899C12.9423 15.9003 12.9395 15.9108 12.9366 15.9215C12.9347 15.9288 12.9328 15.9362 12.9309 15.9434L14.9446 16.3032ZM13.9203 13.0769C13.6954 12.9955 13.4583 12.8462 13.2159 12.6069L10.6709 12.6069C10.7802 12.8988 10.8727 13.2146 10.8727 13.5288L10.8727 16.7722L16.5201 16.7722C16.2379 16.4824 16.2424 16.1154 16.3134 15.8773C16.2316 15.8379 16.1639 15.7909 16.1034 15.739C15.8825 15.901 15.2095 16.3888 15.0328 16.5117L14.9952 16.5364L12.7791 16.1383L12.7338 16.1383C12.6806 16.1383 12.603 16.136 12.5178 16.1259C12.4941 16.2255 12.4075 16.2931 12.3088 16.2931C12.2976 16.2931 12.285 16.2925 12.2735 16.2902C12.2157 16.2804 12.1655 16.251 12.1318 16.2026C12.0971 16.1553 12.0836 16.0989 12.0932 16.041L12.1011 15.993C11.8729 15.833 11.6619 15.4751 11.7553 15.0974L11.7643 15.0574L11.797 15.0347C11.8012 15.0311 11.8395 15.0051 11.8967 14.9729L11.7359 14.9482C11.6754 14.9377 11.6348 14.8816 11.6444 14.8228C11.6546 14.7629 11.7114 14.7195 11.7709 14.7311L12.1546 14.7919L12.1896 13.4473L12.7606 12.8462L13.1169 13.5925L12.7408 14.8859L13.0796 14.9391C13.1393 14.9486 13.1799 15.0042 13.171 15.0653C13.1621 15.1195 13.1159 15.156 13.0624 15.156C13.0565 15.156 13.0508 15.156 13.0449 15.1553L12.7695 15.1113C12.7712 15.1151 12.7733 15.1182 12.7753 15.1212C12.7776 15.1246 12.7799 15.1281 12.7817 15.1327C12.8108 15.1935 12.8761 15.2362 12.9144 15.2552L14.6035 15.2819L14.6104 15.2751C14.6861 15.2015 14.8585 15.0341 15.0352 14.8566C14.619 14.6998 14.4681 14.3435 14.4427 14.1066C14.2106 14.0081 14.0501 13.8605 13.9609 13.6688C13.8526 13.4312 13.8909 13.193 13.9203 13.0769ZM14.3846 8.21033L12.9108 7.71277L13.2991 9.94592L14.3846 10.5144L14.3846 8.21033ZM14.5058 6.36658C15.5552 6.36658 16.5063 6.87231 16.5063 7.43469L16.4858 7.573L16.0664 9.96753L16.4858 10.2108L17.5769 10.8438L17.573 10.8438C17.573 10.8438 17.8182 10.969 17.9302 11.0463C18.3473 11.3325 18.4344 11.7511 18.1935 11.9241C18.1333 11.5829 17.8628 11.2267 17.356 11.2267C16.9904 11.2267 16.7123 11.4133 16.4858 11.6957C16.4294 11.7666 16.3745 11.8425 16.3226 11.9241C16.2593 12.0272 16.1965 12.1176 16.1338 12.2043L18.9403 12.2043C18.7333 12.6172 18.5379 13.054 18.5379 13.5288L18.5379 19.7095C18.5379 21.2057 17.3834 21.9192 16.1322 21.9192C16.0593 21.9192 15.9912 21.9189 15.9273 21.9187C15.143 21.9159 14.9945 21.9154 14.5038 22.4043C14.011 21.9154 13.8623 21.9159 13.0785 21.9187C13.0147 21.9189 12.9466 21.9192 12.8738 21.9192C11.6236 21.9192 10.4674 21.2057 10.4674 19.7095L10.4674 13.5288C10.4674 13.054 10.2716 12.6172 10.0652 12.2043L12.8715 12.2043C12.8084 12.1176 12.745 12.0272 12.6819 11.9241C12.6311 11.8425 12.576 11.7666 12.5178 11.6957C12.2936 11.4143 12.0149 11.2267 11.6497 11.2267C11.1421 11.2267 10.8713 11.5829 10.8119 11.9241C10.5711 11.7511 10.6593 11.3325 11.0741 11.0463C11.1877 10.969 11.4327 10.8438 11.4327 10.8438L11.4287 10.8438L12.5178 10.2108L12.9392 9.96753L12.5198 7.573L12.499 7.43469C12.499 6.87231 13.45 6.36658 14.4995 6.36658L14.5022 6.36658L14.5048 6.36658L14.5058 6.36658Z" fill="#231F20" fill-opacity="1.000000" fill-rule="evenodd"/>
	</g>
</svg>
